<svg xmlns="http://www.w3.org/2000/svg" width="180.195" height="49.697" viewBox="0 0 180.195 49.697">
  <g id="Group_2" data-name="Group 2" transform="translate(-38.812 -40)">
    <path id="Path_1" data-name="Path 1" d="M17.91-6.8A6.57,6.57,0,0,1,15.6-1.743,8.222,8.222,0,0,1,9.878.342,8.269,8.269,0,0,1,4.119-1.743,6.57,6.57,0,0,1,1.812-6.8v-7.9H7.417V-3.726q0,2.8,2.461,2.8,2.427,0,2.427-2.8v-8.511a11.149,11.149,0,0,0-1.675-6.118l-7.007-10.9a11.445,11.445,0,0,1-1.812-6.289v-6.665a6.57,6.57,0,0,1,2.307-5.059,8.269,8.269,0,0,1,5.759-2.085A8.222,8.222,0,0,1,15.6-47.271a6.57,6.57,0,0,1,2.307,5.059v7.9H12.3V-45.288q0-2.8-2.427-2.8-2.461,0-2.461,2.8v8.2A11.086,11.086,0,0,0,9.092-31L16.1-20.1a11.5,11.5,0,0,1,1.812,6.323ZM39.067,0H31.855V-.991A5.939,5.939,0,0,1,27.822.342q-5.981,0-5.981-6.426V-35.137H20.1V-36.4H27.31V-3.726q0,2.666,2.051,2.666a3.531,3.531,0,0,0,2.5-1.2V-35.137H30.112V-36.4h7.212V-1.265h1.743Zm8.716-40.605H42.314v-8.408h5.469ZM49.526,0H40.571V-1.265h1.743V-35.137H40.571V-36.4h7.212V-1.265h1.743ZM62.241,0H60.5a7.975,7.975,0,0,1-5.657-2.085A6.658,6.658,0,0,1,52.6-7.144V-35.137H50.825V-36.4H52.6V-46.553l5.435-2.461V-36.4h3.931v1.265H58.037V-4.067q0,2.8,2.461,2.8h1.743Zm8.853-40.605H65.625v-8.408h5.469ZM72.837,0H63.882V-1.265h1.743V-35.137H63.882V-36.4h7.212V-1.265h1.743ZM90.3-6.8a6.861,6.861,0,0,1-2.017,5.059A7.629,7.629,0,0,1,82.749.342a7.665,7.665,0,0,1-5.537-2.068A6.763,6.763,0,0,1,75.059-6.8v-4.341h5.469v7.417q0,2.8,2.222,2.8,2.119,0,2.119-2.8V-9.092a7.042,7.042,0,0,0-1.914-5.264l-5.742-5.674q-2.153-2.119-2.153-6.221V-29.6a6.856,6.856,0,0,1,2.085-5.093,7.463,7.463,0,0,1,5.469-2.051,7.463,7.463,0,0,1,5.469,2.051A6.856,6.856,0,0,1,90.166-29.6v4.341H84.731v-7.417q0-2.8-2.119-2.8-2.085,0-2.085,2.8v4.819a7,7,0,0,0,1.88,5.229l5.742,5.674Q90.3-14.8,90.3-10.7ZM121.44,0h-7.212V-32.676q0-2.666-2.017-2.666a4.43,4.43,0,0,0-3.145,1.675,8.144,8.144,0,0,1,.615,3.35V-1.265h1.743V0h-7.178V-32.676q0-2.666-2.051-2.666a3.561,3.561,0,0,0-2.529,1.2V-1.265h1.777V0H92.456V-1.265h1.777V-35.137H92.456V-36.4h7.212v.991a5.991,5.991,0,0,1,4.067-1.333q3.384,0,4.854,2.085a7.01,7.01,0,0,1,5.161-2.085q5.947,0,5.947,6.426V-1.265h1.743Z" transform="translate(37 89.355)"/>
    <g id="Group_1" data-name="Group 1" transform="translate(-109 -6)">
      <circle id="Ellipse_1" data-name="Ellipse 1" cx="11.646" cy="11.646" r="11.646" transform="translate(292.015 49)"/>
      <circle id="Ellipse_4" data-name="Ellipse 4" cx="11.646" cy="11.646" r="11.646" transform="translate(279 71.147)"/>
      <g id="Ellipse_5" data-name="Ellipse 5" transform="translate(304.715 71.147)" fill="none" stroke="#000" stroke-width="7">
        <circle cx="11.646" cy="11.646" r="11.646" stroke="none"/>
        <circle cx="11.646" cy="11.646" r="8.146" fill="none"/>
      </g>
    </g>
  </g>
</svg>
